<?xml version="1.0" ?><svg height="60px" version="1.1" viewBox="0 0 44 60" width="44px" xmlns="http://www.w3.org/2000/svg" xmlns:xlink="http://www.w3.org/1999/xlink"><title/><desc/><defs/><g fill="none" fill-rule="evenodd" id="Page-1" stroke="none" stroke-width="1"><g id="029---Gingerbread-Man" transform="translate(0.000000, 1.000000)"><g fill-rule="nonzero" id="Colour"><path d="M38.37,57.22 C37.6854782,57.7301101 36.8536788,58.0038669 36,58 C35.0197552,57.9995562 34.073583,57.6402831 33.34009,56.99 C34.0762024,56.9316793 34.7803982,56.6645588 35.37,56.22 C36.2245816,55.5918712 36.7943638,54.6497437 36.9538019,53.6012042 C37.1132399,52.5526648 36.8492502,51.4837562 36.22,50.63 L27.39,38.65 C27.1370812,38.304735 27.0005009,37.8879902 27,37.46 L27,32.61 C26.9995277,31.9428768 27.3318714,31.3194824 27.8860232,30.94804 C28.440175,30.5765977 29.1430961,30.5060647 29.76,30.76 L31.85,31.62 C30.8064469,31.6946176 29.9984281,32.5637838 30,33.61 L30,38.46 C30.0005009,38.8879902 30.1370812,39.304735 30.39,39.65 L39.22,51.63 C39.8492502,52.4837562 40.1132399,53.5526648 39.9538019,54.6012042 C39.7943638,55.6497437 39.2245816,56.5918712 38.37,57.22 L38.37,57.22 Z" fill="#F88F00" id="Shape"/><path d="M42.7,31.52 C42.0834253,33.0202714 40.6220292,33.9998018 39,34 C38.4788115,33.9981141 37.9628224,33.8962741 37.48,33.7 L35.74,32.99 C35.8264024,32.9983278 35.9132132,33.0016667 36,33 C37.9105319,33.0000629 39.5543985,31.6490223 39.9244022,29.7746612 C40.294406,27.9003002 39.287242,26.0259393 37.52,25.3 L24.07007,19.76 C27.7349595,17.8576443 30.0251154,14.0624011 29.9997944,9.93326913 C29.9744735,5.80413714 27.6379445,2.03726609 23.95,0.18 C28.5818719,1.01238323 32.170375,4.70038546 32.8757981,9.35328539 C33.5812211,14.0061853 31.2471224,18.5921092 27.07012,20.76 L40.52,26.3 C41.5021259,26.7021232 42.2839134,27.4784667 42.6928898,28.4577587 C43.1018661,29.4370507 43.1044243,30.5388194 42.7,31.52 Z" fill="#F88F00" id="Shape"/><path d="M39.7,30.52 C39.0834253,32.0202714 37.6220292,32.9998018 36,33 C35.9132132,33.0016667 35.8264024,32.9983278 35.74,32.99 L32.76,31.76 C32.4723717,31.6407148 32.160182,31.5926856 31.85,31.62 L29.76,30.76 C29.1430961,30.5060647 28.440175,30.5765977 27.8860232,30.94804 C27.3318714,31.3194824 26.9995277,31.9428768 27,32.61 L27,37.46 C27.0005009,37.8879902 27.1370812,38.304735 27.39,38.65 L36.22,50.63 C36.8492502,51.4837562 37.1132399,52.5526648 36.9538019,53.6012042 C36.7943638,54.6497437 36.2245816,55.5918712 35.37,56.22 C34.7803982,56.6645588 34.0762024,56.9316793 33.34009,56.99 C33.1305109,56.8052253 32.9426178,56.597223 32.78003,56.37 L23.61,43.93 C22.9991837,43.0893774 21.8431945,42.8625418 20.96,43.41 C20.7338312,43.5389578 20.5391534,43.7165741 20.39005,43.93 L11.22,56.37 C10.4689101,57.3967892 9.2721735,58.0025907 8,58 C7.14632122,58.0038669 6.3145218,57.7301101 5.63,57.22 C5.52,57.14004 5.42002667,57.06004 5.33008,56.98 C3.7976231,55.603769 3.55964945,53.289271 4.78,51.63 L13.61,39.65 C13.8629188,39.304735 13.9994991,38.8879902 14,38.46 L14,33.61 C14.0004723,32.9428768 13.6681286,32.3194824 13.1139768,31.94804 C12.559825,31.5765977 11.8569039,31.5060647 11.24,31.76 L10.88,31.91 L6.52,33.7 C6.03717758,33.8962741 5.52118852,33.9981141 5,34 C4.01514702,33.9984304 3.06511481,33.6354858 2.33008,32.98 C1.879685,32.5784406 1.52732886,32.0789844 1.30008,31.52 C0.895651121,30.5388294 0.898197933,29.4370691 1.30715858,28.4577788 C1.71611923,27.4784884 2.49788852,26.7021386 3.48,26.3 L16.93,20.76 C12.4307191,18.4235549 10.1113146,13.314409 11.3141009,8.38939025 C12.5168873,3.46437155 16.9302363,-0.00050369619 22,-9.44218119e-16 C22.6541937,-0.00100024793 23.3070437,0.059262829 23.95,0.18 C27.6379494,2.03725661 29.9744881,5.80412179 29.9998197,9.93325383 C30.0251512,14.0623859 27.7350048,17.857635 24.07012,19.76 L37.52,25.3 C38.5021259,25.7021232 39.2839134,26.4784667 39.6928898,27.4577587 C40.1018661,28.4370507 40.1044243,29.5388194 39.7,30.52 L39.7,30.52 Z" fill="#FFA700" id="Shape"/><path d="M35.74,32.99 C35.3071688,32.961509 34.8817365,32.8635921 34.48,32.7 L31.85,31.62 C32.160182,31.5926856 32.4723717,31.6407148 32.76,31.76 L35.74,32.99 Z" fill="#FFA700" id="Shape"/><path d="M33,11 C33,17.0751322 28.0751322,22 22,22 C15.9248678,22 11,17.0751322 11,11 C11,4.92486775 15.9248678,2.42508921e-16 22,-8.67714104e-16 C24.9190569,-0.00547667403 27.7201331,1.15168979 29.7842217,3.21577834 C31.8483102,5.27986689 33.0054767,8.08094311 33,11 Z" fill="#F88F00" id="Shape"/><path d="M30,11 C30.104611,14.9221649 28.1656108,18.6174457 24.8787,20.76 C22.1936659,22.4133203 18.8063341,22.4133203 16.1213,20.76 C12.8343892,18.6174457 10.895389,14.9221649 11,11 C11,4.92 15.249,1.0658141e-14 20.5,1.0658141e-14 C25.751,1.0658141e-14 30,4.92 30,11 Z" fill="#FFA700" id="Shape"/><polygon fill="#FFFFFF" id="Shape" points="14.56 51.84 8.31 46.85 6.17 49.74 12.42 54.74"/><polygon fill="#FFFFFF" id="Shape" points="29.44 51.84 35.69 46.85 37.83 49.74 31.58 54.74"/><polygon fill="#FFFFFF" id="Shape" points="37.13 24.9 37.13 24.91 33.82 32.2 37.11 33.55 40.43 26.26"/><polygon fill="#FFFFFF" id="Shape" points="6.897 24.9 6.897 24.91 10.207 32.2 6.917 33.55 3.597 26.26"/><circle cx="22" cy="30" fill="#EF3A76" id="Oval" r="2"/><circle cx="22" cy="37" fill="#EF3A76" id="Oval" r="2"/><circle cx="18" cy="9" fill="#00C6DB" id="Oval" r="2"/><circle cx="26" cy="9" fill="#00C6DB" id="Oval" r="2"/></g><g id="Outline" stroke="#000000" stroke-linecap="round" stroke-linejoin="round"><path d="M33,11 C33,17.0751322 28.0751322,22 22,22 C15.9248678,22 11,17.0751322 11,11 C11,4.92486775 15.9248678,2.42508921e-16 22,-8.67714104e-16 C24.9190569,-0.00547667403 27.7201331,1.15168979 29.7842217,3.21577834 C31.8483102,5.27986689 33.0054767,8.08094311 33,11 Z" id="Shape" stroke-width="2"/><path d="M42.7,31.52 C42.0834253,33.0202714 40.6220292,33.9998018 39,34 C38.4788115,33.9981141 37.9628224,33.8962741 37.48,33.7 L32.7615,31.75709 C32.1445318,31.5030441 31.4415081,31.5734001 30.8871192,31.944671 C30.3327303,32.3159419 29.9999987,32.939225 30,33.60645 L30,38.46261 C29.9999914,38.8896261 30.1366587,39.3054346 30.39,39.64918 L39.22,51.63 C39.8492502,52.4837562 40.1132399,53.5526648 39.9538019,54.6012042 C39.7943638,55.6497437 39.2245816,56.5918712 38.37,57.22 C37.6854782,57.7301101 36.8536788,58.0038669 36,58 C34.7278265,58.0025907 33.5310899,57.3967892 32.78,56.37 L23.61011,43.92513 C23.2331425,43.4135328 22.635481,43.1115303 22,43.1115303 C21.364519,43.1115303 20.7668575,43.4135328 20.38989,43.92513 L11.22,56.37 C10.4689101,57.3967892 9.2721735,58.0025907 8,58 C7.14632122,58.0038669 6.3145218,57.7301101 5.63,57.22 C4.77541841,56.5918712 4.20563615,55.6497437 4.04619813,54.6012042 C3.88676011,53.5526648 4.15074975,52.4837562 4.78,51.63 L13.61,39.64918 C13.8633413,39.3054346 14.0000086,38.8896261 14,38.46261 L14,33.60645 C14.0000013,32.939225 13.6672697,32.3159419 13.1128808,31.944671 C12.5584919,31.5734001 11.8554682,31.5030441 11.2385,31.75709 L6.52,33.7 C6.03717758,33.8962741 5.52118852,33.9981141 5,34 C3.0894681,34.0000629 1.44560152,32.6490223 1.07559778,30.7746612 C0.705594035,28.9003002 1.71275799,27.0259393 3.48,26.3 L16.93,20.76 C20.1078698,22.4133207 23.8922702,22.4133207 27.07014,20.76 L40.52,26.3 C41.5021259,26.7021232 42.2839134,27.4784667 42.6928898,28.4577587 C43.1018661,29.4370507 43.1044243,30.5388194 42.7,31.52 Z" id="Shape" stroke-width="2"/><path d="M12.42,54.74 L6.17,49.74" id="Shape"/><path d="M14.56,51.84 L8.31,46.85" id="Shape"/><path d="M37.83,49.74 L31.58,54.74" id="Shape"/><path d="M35.69,46.85 L29.44,51.84" id="Shape"/><path d="M6.89,33.55 L3.57,26.26" id="Shape"/><path d="M10.18,32.2 L6.87,24.91" id="Shape"/><path d="M40.43,26.26 L37.11,33.55" id="Shape"/><polyline id="Shape" points="37.13 24.9 37.13 24.91 33.82 32.2"/><circle cx="22" cy="30" id="Oval" r="2"/><circle cx="22" cy="37" id="Oval" r="2"/><circle cx="18" cy="9" id="Oval" r="2" stroke-width="2"/><circle cx="26" cy="9" id="Oval" r="2" stroke-width="2"/><path d="M26,14 L26,14 C26,16.209139 24.209139,18 22,18 L22,18 C19.790861,18 18,16.209139 18,14 L18,14" id="Shape" stroke-width="2"/></g></g></g></svg>